<?xml version="1.0" encoding="UTF-8" standalone="no"?>
<svg width="28px" height="32px" viewBox="0 0 28 32" version="1.1" xmlns="http://www.w3.org/2000/svg" xmlns:xlink="http://www.w3.org/1999/xlink">
    <!-- Generator: Sketch 41 (35326) - http://www.bohemiancoding.com/sketch -->
    <title>Page 1</title>
    <desc>Created with Sketch.</desc>
    <defs></defs>
    <g id="Welcome" stroke="none" stroke-width="1" fill="none" fill-rule="evenodd">
        <g id="Desktop-Copy" transform="translate(-70.000000, -17.000000)" fill="#FFFFFF">
            <g id="Page-1" transform="translate(70.000000, 17.000000)">
                <path d="M16.2986806,3.18204813 C16.2850123,1.92634689 15.23269,0.903409129 13.9651261,0.913898755 C12.7267564,0.924122822 11.6871735,1.98848797 11.7088038,3.22374108 C11.7310976,4.49431369 12.7706806,5.50676183 14.0402351,5.49467884 C15.2702445,5.48312697 16.3120834,4.416239 16.2986806,3.18204813 L16.2986806,3.18204813 Z M14.4470976,31.0420979 C20.4075147,30.9070606 25.0823204,25.6452515 24.9959318,20.2057826 C24.6491829,20.560571 24.3447659,20.8910606 24.0189839,21.1989776 C23.7437611,21.458961 23.3948891,21.4046539 23.2379033,21.100322 C23.1251071,20.8816332 23.1877422,20.6946788 23.3522919,20.5298988 C23.9701498,19.9119402 24.5842919,19.2901311 25.2073251,18.6776166 C25.4579981,18.431044 25.6806711,18.4277245 25.9332019,18.6750938 C26.5574294,19.2862805 27.1746237,19.9050357 27.7859791,20.5292349 C28.0066616,20.7544299 28.0070597,21.0120232 27.8206142,21.2089361 C27.6250123,21.4155419 27.3569555,21.4244382 27.1165005,21.1931353 C26.7753251,20.8655668 26.4555147,20.5156913 26.0652398,20.1116415 C25.8738844,24.1019485 24.2707185,27.2726041 21.1513062,29.6192266 C18.8886142,31.3216 16.3031924,32.0783137 13.4797043,31.9671768 C11.4334483,31.8865793 9.52307867,31.3043386 7.7710218,30.2351934 C6.01989384,29.1665793 4.62374218,27.7447701 3.59105972,25.9691021 C2.55996967,24.1960896 2.03248152,22.2775502 1.96785592,20.1340813 C1.59947678,20.5009527 1.30620664,20.8229444 0.978964929,21.1053676 C0.832727962,21.2315087 0.619874882,21.3353427 0.433562085,21.3417162 C0.296746919,21.3463635 0.0917232227,21.2048199 0.0316094787,21.0754921 C-0.0273099526,20.9485544 -0.00183127962,20.6968033 0.0909270142,20.5988116 C0.72895545,19.9244216 1.38861422,19.2698158 2.05477536,18.6227784 C2.24732512,18.4358241 2.48724929,18.4537494 2.68019716,18.6437577 C3.31809289,19.2728697 3.95227299,19.9056996 4.57995071,20.5450357 C4.79280379,20.7617328 4.7845763,21.033268 4.58910711,21.2224797 C4.38965687,21.4155419 4.13646256,21.4164714 3.91365687,21.1965876 C3.59265213,20.8796415 3.28664265,20.5475585 2.95236777,20.1990108 C2.56036777,21.6042224 3.85659526,25.1906124 5.40469005,27.0336 C7.50402654,29.5325212 10.1909649,30.8641726 13.4681592,31.0767535 L13.4681592,10.4188282 L13.1166332,10.4188282 C11.8117801,10.4186954 10.506927,10.4167037 9.20220664,10.4202888 C8.90588436,10.4210855 8.67272796,10.3467286 8.62190332,10.0118573 C8.57187488,9.68136763 8.77358104,9.4709112 9.16067109,9.46931784 C10.3548512,9.46440498 11.5490313,9.46732614 12.7433441,9.46732614 L13.4605953,9.46732614 L13.4605953,6.45773278 C12.6264341,6.29574108 11.9188701,5.90510207 11.3852777,5.22155021 C10.5361213,4.13381577 10.4907374,2.58413942 11.2797801,1.44262905 C12.1106237,0.240703734 13.5688796,-0.27820083 14.9219033,0.146562656 C16.2659033,0.568404979 17.1976,1.81786556 17.201581,3.20329295 C17.2059602,4.75031369 16.2314009,6.0129195 14.714491,6.3922722 C14.4845194,6.44976598 14.416709,6.53142573 14.4204246,6.76325975 C14.4342256,7.64664564 14.4259981,8.53056266 14.4259981,9.45019751 C14.5652019,9.45657095 14.6818464,9.46652946 14.7987564,9.46666224 C16.1146237,9.46772448 17.430491,9.47011452 18.7463583,9.46546722 C19.0376379,9.46440498 19.24651,9.56120166 19.3059602,9.86420581 C19.3676664,10.1784963 19.1443299,10.4144465 18.7715716,10.4163054 C17.6769175,10.4218822 16.5821308,10.4185627 15.4874768,10.4186954 C15.1474957,10.4188282 14.8075147,10.4188282 14.4470976,10.4188282 L14.4470976,31.0420979 Z" id="Fill-1"></path>
            </g>
        </g>
    </g>
</svg>